<mxfile host="app.diagrams.net" agent="Mozilla/5.0 (Windows NT 10.0; Win64; x64) AppleWebKit/537.36 (KHTML, like Gecko) Chrome/128.0.0.0 YaBrowser/24.10.0.0 Safari/537.36" version="24.8.9">
  <diagram id="C5RBs43oDa-KdzZeNtuy" name="Page-1">
    <mxGraphModel dx="1195" dy="1822" grid="1" gridSize="10" guides="1" tooltips="1" connect="1" arrows="1" fold="1" page="1" pageScale="1" pageWidth="827" pageHeight="1169" math="0" shadow="0">
      <root>
        <mxCell id="WIyWlLk6GJQsqaUBKTNV-0" />
        <mxCell id="WIyWlLk6GJQsqaUBKTNV-1" parent="WIyWlLk6GJQsqaUBKTNV-0" />
        <mxCell id="JAl14Ay0Cb7buKhfWOOm-9" style="edgeStyle=orthogonalEdgeStyle;rounded=0;orthogonalLoop=1;jettySize=auto;html=1;exitX=0.5;exitY=1;exitDx=0;exitDy=0;entryX=0.5;entryY=0;entryDx=0;entryDy=0;" edge="1" parent="WIyWlLk6GJQsqaUBKTNV-1" source="JAl14Ay0Cb7buKhfWOOm-0" target="JAl14Ay0Cb7buKhfWOOm-2">
          <mxGeometry relative="1" as="geometry" />
        </mxCell>
        <mxCell id="JAl14Ay0Cb7buKhfWOOm-0" value="Начало" style="rounded=0;whiteSpace=wrap;html=1;" vertex="1" parent="WIyWlLk6GJQsqaUBKTNV-1">
          <mxGeometry x="100" y="140" width="120" height="60" as="geometry" />
        </mxCell>
        <mxCell id="JAl14Ay0Cb7buKhfWOOm-1" value="Создание игры" style="text;html=1;align=center;verticalAlign=middle;resizable=0;points=[];autosize=1;strokeColor=none;fillColor=none;" vertex="1" parent="WIyWlLk6GJQsqaUBKTNV-1">
          <mxGeometry x="105" y="100" width="110" height="30" as="geometry" />
        </mxCell>
        <mxCell id="JAl14Ay0Cb7buKhfWOOm-10" style="edgeStyle=orthogonalEdgeStyle;rounded=0;orthogonalLoop=1;jettySize=auto;html=1;exitX=0.5;exitY=1;exitDx=0;exitDy=0;entryX=0.5;entryY=0;entryDx=0;entryDy=0;" edge="1" parent="WIyWlLk6GJQsqaUBKTNV-1" source="JAl14Ay0Cb7buKhfWOOm-2" target="JAl14Ay0Cb7buKhfWOOm-3">
          <mxGeometry relative="1" as="geometry" />
        </mxCell>
        <mxCell id="JAl14Ay0Cb7buKhfWOOm-2" value="Создаем игру" style="rounded=0;whiteSpace=wrap;html=1;" vertex="1" parent="WIyWlLk6GJQsqaUBKTNV-1">
          <mxGeometry x="100" y="230" width="120" height="60" as="geometry" />
        </mxCell>
        <mxCell id="JAl14Ay0Cb7buKhfWOOm-11" style="edgeStyle=orthogonalEdgeStyle;rounded=0;orthogonalLoop=1;jettySize=auto;html=1;exitX=0.5;exitY=1;exitDx=0;exitDy=0;entryX=0.5;entryY=0;entryDx=0;entryDy=0;" edge="1" parent="WIyWlLk6GJQsqaUBKTNV-1" source="JAl14Ay0Cb7buKhfWOOm-3" target="JAl14Ay0Cb7buKhfWOOm-4">
          <mxGeometry relative="1" as="geometry" />
        </mxCell>
        <mxCell id="JAl14Ay0Cb7buKhfWOOm-3" value="Создаем&amp;nbsp; колоду (сразу тусуется)" style="rounded=0;whiteSpace=wrap;html=1;" vertex="1" parent="WIyWlLk6GJQsqaUBKTNV-1">
          <mxGeometry x="100" y="320" width="120" height="60" as="geometry" />
        </mxCell>
        <mxCell id="JAl14Ay0Cb7buKhfWOOm-12" style="edgeStyle=orthogonalEdgeStyle;rounded=0;orthogonalLoop=1;jettySize=auto;html=1;exitX=0.5;exitY=1;exitDx=0;exitDy=0;entryX=0.5;entryY=0;entryDx=0;entryDy=0;" edge="1" parent="WIyWlLk6GJQsqaUBKTNV-1" source="JAl14Ay0Cb7buKhfWOOm-4" target="JAl14Ay0Cb7buKhfWOOm-7">
          <mxGeometry relative="1" as="geometry" />
        </mxCell>
        <mxCell id="JAl14Ay0Cb7buKhfWOOm-4" value="Диллер сразу вытягивает свои карты" style="rounded=0;whiteSpace=wrap;html=1;" vertex="1" parent="WIyWlLk6GJQsqaUBKTNV-1">
          <mxGeometry x="100" y="410" width="120" height="60" as="geometry" />
        </mxCell>
        <mxCell id="JAl14Ay0Cb7buKhfWOOm-14" style="edgeStyle=orthogonalEdgeStyle;rounded=0;orthogonalLoop=1;jettySize=auto;html=1;exitX=0.5;exitY=1;exitDx=0;exitDy=0;entryX=0.5;entryY=0;entryDx=0;entryDy=0;" edge="1" parent="WIyWlLk6GJQsqaUBKTNV-1" source="JAl14Ay0Cb7buKhfWOOm-5" target="JAl14Ay0Cb7buKhfWOOm-8">
          <mxGeometry relative="1" as="geometry" />
        </mxCell>
        <mxCell id="JAl14Ay0Cb7buKhfWOOm-5" value="Ожидание игроков" style="rounded=0;whiteSpace=wrap;html=1;" vertex="1" parent="WIyWlLk6GJQsqaUBKTNV-1">
          <mxGeometry x="100" y="590" width="120" height="60" as="geometry" />
        </mxCell>
        <mxCell id="JAl14Ay0Cb7buKhfWOOm-13" style="edgeStyle=orthogonalEdgeStyle;rounded=0;orthogonalLoop=1;jettySize=auto;html=1;exitX=0.5;exitY=1;exitDx=0;exitDy=0;entryX=0.5;entryY=0;entryDx=0;entryDy=0;" edge="1" parent="WIyWlLk6GJQsqaUBKTNV-1" source="JAl14Ay0Cb7buKhfWOOm-7" target="JAl14Ay0Cb7buKhfWOOm-5">
          <mxGeometry relative="1" as="geometry" />
        </mxCell>
        <mxCell id="JAl14Ay0Cb7buKhfWOOm-7" value="Сохраняем состояние игры, колоду, диллера в бд" style="rounded=0;whiteSpace=wrap;html=1;" vertex="1" parent="WIyWlLk6GJQsqaUBKTNV-1">
          <mxGeometry x="100" y="500" width="120" height="60" as="geometry" />
        </mxCell>
        <mxCell id="JAl14Ay0Cb7buKhfWOOm-8" value="Конец" style="rounded=0;whiteSpace=wrap;html=1;" vertex="1" parent="WIyWlLk6GJQsqaUBKTNV-1">
          <mxGeometry x="100" y="680" width="120" height="60" as="geometry" />
        </mxCell>
        <mxCell id="JAl14Ay0Cb7buKhfWOOm-19" style="edgeStyle=orthogonalEdgeStyle;rounded=0;orthogonalLoop=1;jettySize=auto;html=1;exitX=0.5;exitY=1;exitDx=0;exitDy=0;entryX=0.5;entryY=0;entryDx=0;entryDy=0;" edge="1" parent="WIyWlLk6GJQsqaUBKTNV-1" source="JAl14Ay0Cb7buKhfWOOm-15" target="JAl14Ay0Cb7buKhfWOOm-16">
          <mxGeometry relative="1" as="geometry" />
        </mxCell>
        <mxCell id="JAl14Ay0Cb7buKhfWOOm-20" style="edgeStyle=orthogonalEdgeStyle;rounded=0;orthogonalLoop=1;jettySize=auto;html=1;exitX=0.5;exitY=1;exitDx=0;exitDy=0;entryX=0.5;entryY=0;entryDx=0;entryDy=0;" edge="1" parent="WIyWlLk6GJQsqaUBKTNV-1" source="JAl14Ay0Cb7buKhfWOOm-15" target="JAl14Ay0Cb7buKhfWOOm-17">
          <mxGeometry relative="1" as="geometry" />
        </mxCell>
        <mxCell id="JAl14Ay0Cb7buKhfWOOm-21" style="edgeStyle=orthogonalEdgeStyle;rounded=0;orthogonalLoop=1;jettySize=auto;html=1;exitX=0.5;exitY=1;exitDx=0;exitDy=0;entryX=0.5;entryY=0;entryDx=0;entryDy=0;" edge="1" parent="WIyWlLk6GJQsqaUBKTNV-1" source="JAl14Ay0Cb7buKhfWOOm-15" target="JAl14Ay0Cb7buKhfWOOm-18">
          <mxGeometry relative="1" as="geometry" />
        </mxCell>
        <mxCell id="JAl14Ay0Cb7buKhfWOOm-23" style="edgeStyle=orthogonalEdgeStyle;rounded=0;orthogonalLoop=1;jettySize=auto;html=1;exitX=0.5;exitY=1;exitDx=0;exitDy=0;entryX=0.5;entryY=0;entryDx=0;entryDy=0;" edge="1" parent="WIyWlLk6GJQsqaUBKTNV-1" source="JAl14Ay0Cb7buKhfWOOm-15" target="JAl14Ay0Cb7buKhfWOOm-22">
          <mxGeometry relative="1" as="geometry" />
        </mxCell>
        <mxCell id="JAl14Ay0Cb7buKhfWOOm-15" value="Что хранится в бд?" style="rounded=0;whiteSpace=wrap;html=1;" vertex="1" parent="WIyWlLk6GJQsqaUBKTNV-1">
          <mxGeometry x="354" y="-290" width="120" height="60" as="geometry" />
        </mxCell>
        <mxCell id="JAl14Ay0Cb7buKhfWOOm-16" value="Игровая сессия&lt;br&gt;(ID, название, кол-во игроков, FK колода карт, FK диллер, FK игроки)" style="rounded=0;whiteSpace=wrap;html=1;" vertex="1" parent="WIyWlLk6GJQsqaUBKTNV-1">
          <mxGeometry x="120" y="-190" width="140" height="70" as="geometry" />
        </mxCell>
        <mxCell id="JAl14Ay0Cb7buKhfWOOm-17" value="Колода карт&lt;div&gt;(ID, карты, FK игровая сессия)&lt;/div&gt;" style="rounded=0;whiteSpace=wrap;html=1;" vertex="1" parent="WIyWlLk6GJQsqaUBKTNV-1">
          <mxGeometry x="294" y="-190" width="120" height="60" as="geometry" />
        </mxCell>
        <mxCell id="JAl14Ay0Cb7buKhfWOOm-18" value="Диллер&lt;div&gt;(ID, его карты, FK игровая сессия)&lt;/div&gt;" style="rounded=0;whiteSpace=wrap;html=1;" vertex="1" parent="WIyWlLk6GJQsqaUBKTNV-1">
          <mxGeometry x="450" y="-190" width="120" height="60" as="geometry" />
        </mxCell>
        <mxCell id="JAl14Ay0Cb7buKhfWOOm-22" value="Игроки&lt;div&gt;(ID, его карты, FK игровая сессия)&lt;/div&gt;" style="rounded=0;whiteSpace=wrap;html=1;" vertex="1" parent="WIyWlLk6GJQsqaUBKTNV-1">
          <mxGeometry x="610" y="-190" width="120" height="60" as="geometry" />
        </mxCell>
      </root>
    </mxGraphModel>
  </diagram>
</mxfile>
